<svg width="17" height="18" viewBox="0 0 17 18" fill="none" xmlns="http://www.w3.org/2000/svg">
<path fill-rule="evenodd" clip-rule="evenodd" d="M6.3382 3.36214L13.6597 0.760824C14.2779 0.541311 14.8307 1.24682 14.4697 1.79461L10.193 8.2818C9.88098 8.75503 9.45801 8.95949 9.22028 9.04406L4.08701 10.8678C3.9819 11.2582 4.05817 11.6844 4.30921 12.0373C4.6001 12.015 4.90656 12.1291 5.11209 12.3914C5.30359 12.6357 5.34665 12.9339 5.27963 13.1986L7.85123 15.3871C8.07486 15.5774 8.08527 15.9162 7.87238 16.083L6.70587 16.9971C6.49323 17.1637 6.16681 17.0726 6.03549 16.81L4.52539 13.7897C4.25229 13.7914 3.97308 13.6784 3.78159 13.434C3.57034 13.1644 3.53436 12.8282 3.63651 12.5461C3.33701 12.1361 3.18753 11.6645 3.17505 11.1916L1.89865 11.6451C1.28082 11.8647 0.727784 11.159 1.08875 10.6116L5.36548 4.12438C5.5983 3.77106 5.93924 3.50388 6.3382 3.36214ZM9.56827 9.89069C9.90299 9.77184 10.4944 9.48554 10.9319 8.82216L13.1553 5.4493L15.4659 7.79073C15.7783 8.18937 15.6191 8.8969 15.1088 9.72001H15.976V11.808L15.088 11.916C14.904 11.756 14.756 11.46 14.644 11.028H14.085C13.7041 11.4349 13.2626 11.8456 12.772 12.2417V13.092H14.44C14.536 12.852 14.636 12.684 14.74 12.588L15.496 12.672V14.808L14.74 14.904C14.636 14.824 14.536 14.656 14.44 14.4H12.772V16.692H14.74C14.844 16.276 14.992 15.98 15.184 15.804L16.072 15.912V18H10.504L10.384 17.004C10.488 16.868 10.708 16.736 11.044 16.608V13.43C9.4075 14.3666 7.96118 14.6569 7.48279 14.0464L5.76196 11.2432L9.56827 9.89069Z" fill="#2BC13A"/>
</svg>
