<svg width="74" height="19" viewBox="0 0 74 19" fill="none" xmlns="http://www.w3.org/2000/svg">
<path fill-rule="evenodd" clip-rule="evenodd" d="M6.33821 3.36213L13.6597 0.760824C14.2779 0.54131 14.8307 1.24682 14.4697 1.7946L10.193 8.28181C9.88097 8.75502 9.45801 8.95949 9.22027 9.04406L4.08699 10.8678C3.9819 11.2582 4.05816 11.6844 4.30919 12.0373C4.60008 12.015 4.90656 12.1291 5.1121 12.3914C5.3036 12.6357 5.34665 12.9339 5.27963 13.1986L7.85122 15.3871C8.07485 15.5774 8.08526 15.9162 7.87238 16.083L6.70589 16.9971C6.49321 17.1637 6.1668 17.0726 6.03548 16.81L4.52539 13.7897C4.2523 13.7914 3.97308 13.6784 3.78158 13.434C3.57035 13.1644 3.53436 12.8282 3.6365 12.5461C3.337 12.1361 3.18754 11.6645 3.17504 11.1916L1.89864 11.6451C1.28082 11.8647 0.727796 11.159 1.08874 10.6116L5.36547 4.12438C5.5983 3.77105 5.93925 3.50388 6.33821 3.36213ZM9.56828 9.89068C9.90298 9.77184 10.4944 9.48554 10.9319 8.82217L13.1553 5.4493L15.4659 7.79072C15.7783 8.18934 15.6191 8.89684 15.1088 9.71991H15.976V11.8079L15.088 11.9159C14.904 11.7559 14.756 11.4599 14.644 11.0279H14.0851C13.7042 11.4349 13.2627 11.8456 12.772 12.2417V13.0919H14.44C14.536 12.8519 14.636 12.6839 14.74 12.5879L15.496 12.6719V14.8079L14.74 14.9039C14.636 14.8239 14.536 14.6559 14.44 14.3999H12.772V16.6919H14.74C14.844 16.2759 14.992 15.9799 15.184 15.8039L16.072 15.9119V17.9999H10.504L10.384 17.0039C10.488 16.8679 10.708 16.7359 11.044 16.6079V13.43C9.40753 14.3666 7.96119 14.6569 7.4828 14.0464L5.76197 11.2432L9.56828 9.89068ZM21.2088 9.32391C20.7928 9.32391 20.3568 9.37591 19.9008 9.47991L19.7808 10.4039C19.9568 10.5879 20.2288 10.7319 20.5968 10.8359V12.0239C20.2608 11.9439 19.9248 11.9039 19.5888 11.9039C18.8288 11.9039 18.1888 12.1199 17.6688 12.5519C17.0768 13.0399 16.7808 13.8879 16.7808 15.0959C16.7808 16.1599 16.9728 16.9279 17.3568 17.3999C17.7488 17.8639 18.3768 18.0959 19.2408 18.0959C19.5128 18.0959 19.7888 18.0479 20.0688 17.9519C20.3488 17.8479 20.5768 17.7239 20.7528 17.5799C20.7608 17.6759 20.8008 17.7759 20.8728 17.8799C20.9528 17.9839 21.0328 18.0559 21.1128 18.0959C21.8488 18.0959 22.4568 17.9679 22.9368 17.7119V16.7639C22.7368 16.6679 22.5168 16.5999 22.2768 16.5599V9.35991C21.9808 9.33591 21.6248 9.32391 21.2088 9.32391ZM20.5968 16.4639C20.3168 16.7359 19.9488 16.8719 19.4928 16.8719C19.1568 16.8719 18.9088 16.7319 18.7488 16.4519C18.5888 16.1719 18.5088 15.7119 18.5088 15.0719C18.5088 14.4239 18.5888 13.9399 18.7488 13.6199C18.9168 13.2919 19.1848 13.1279 19.5528 13.1279C19.9208 13.1279 20.2688 13.1679 20.5968 13.2479V16.4639ZM25.909 18.0959C26.661 18.0959 27.313 17.8959 27.865 17.4959C27.881 17.7519 27.989 17.9519 28.189 18.0959C28.917 18.0959 29.521 17.9679 30.001 17.7119V16.7639C29.841 16.6839 29.621 16.6159 29.341 16.5599V11.8799C29.077 11.8559 28.753 11.8439 28.369 11.8439C27.985 11.8439 27.569 11.8959 27.121 11.9999L27.001 12.9239C27.161 13.0999 27.381 13.2359 27.661 13.3319V16.3919C27.325 16.6479 26.961 16.7759 26.569 16.7759C26.177 16.7759 25.913 16.7079 25.777 16.5719C25.649 16.4279 25.585 16.1399 25.585 15.7079V11.8799C25.321 11.8559 24.997 11.8439 24.613 11.8439C24.229 11.8439 23.813 11.8959 23.365 11.9999L23.245 12.9239C23.405 13.0999 23.625 13.2359 23.905 13.3319V16.1039C23.905 16.8079 24.053 17.3159 24.349 17.6279C24.645 17.9399 25.165 18.0959 25.909 18.0959ZM33.9477 10.9799C34.4277 10.9799 34.7877 11.0319 35.0277 11.1359C35.0757 11.5999 35.1557 11.9399 35.2677 12.1559H36.4077C36.5117 11.9479 36.5917 11.6799 36.6477 11.3519C36.7037 11.0239 36.7317 10.7919 36.7317 10.6559V10.3799C35.9077 9.87591 35.0397 9.62391 34.1277 9.62391C32.9917 9.62391 32.1077 9.97591 31.4757 10.6799C30.8517 11.3839 30.5397 12.4719 30.5397 13.9439C30.5397 15.4159 30.7917 16.4759 31.2957 17.1239C31.8077 17.7719 32.6357 18.0959 33.7797 18.0959C34.9237 18.0959 35.9197 17.8439 36.7677 17.3399L36.3357 16.2719C35.6557 16.5279 34.8877 16.6559 34.0317 16.6559C33.4717 16.6559 33.0477 16.4399 32.7597 16.0079C32.4797 15.5679 32.3397 14.8279 32.3397 13.7879C32.3397 12.7479 32.4877 12.0199 32.7837 11.6039C33.0797 11.1879 33.4677 10.9799 33.9477 10.9799ZM37.9371 17.3399C38.3931 17.8439 39.0931 18.0959 40.0371 18.0959C40.9891 18.0959 41.7211 17.8159 42.2331 17.2559C42.7531 16.6879 43.0131 15.8959 43.0131 14.8799C43.0131 13.8559 42.7811 13.1039 42.3171 12.6239C41.8611 12.1439 41.1571 11.9039 40.2051 11.9039C39.2531 11.9039 38.5211 12.1759 38.0091 12.7199C37.5051 13.2559 37.2531 14.0359 37.2531 15.0599C37.2531 16.0759 37.4811 16.8359 37.9371 17.3399ZM40.9971 16.4399C40.8131 16.7279 40.5251 16.8719 40.1331 16.8719C39.3651 16.8719 38.9811 16.2319 38.9811 14.9519C38.9811 14.2879 39.0731 13.8199 39.2571 13.5479C39.4411 13.2679 39.7251 13.1279 40.1091 13.1279C40.8931 13.1279 41.2851 13.7519 41.2851 14.9999C41.2851 15.6639 41.1891 16.1439 40.9971 16.4399ZM44.9364 11.8559C44.5844 11.8559 44.1884 11.9039 43.7484 11.9999L43.6284 12.9239C43.7884 13.0999 44.0084 13.2359 44.2884 13.3319V16.6679C43.9604 16.7879 43.7404 16.9239 43.6284 17.0759L43.7484 17.9999H46.5084L46.6284 17.0759C46.5004 16.9239 46.2804 16.7879 45.9684 16.6679V13.5839C46.3284 13.3279 46.6884 13.1999 47.0484 13.1999C47.4084 13.1999 47.6564 13.2759 47.7924 13.4279C47.9364 13.5719 48.0084 13.8599 48.0084 14.2919V16.6679C47.6804 16.7879 47.4604 16.9239 47.3484 17.0759L47.4684 17.9999H50.2284L50.3484 17.0759C50.2204 16.9239 50.0004 16.7879 49.6884 16.6679V14.3639C49.6884 13.4599 49.5284 12.8239 49.2084 12.4559C48.8964 12.0879 48.3484 11.9039 47.5644 11.9039C47.2604 11.9039 46.9404 11.9599 46.6044 12.0719C46.2764 12.1759 46.0124 12.3119 45.8124 12.4799V11.8799C45.5804 11.8639 45.2884 11.8559 44.9364 11.8559ZM52.0731 11.8559C51.7211 11.8559 51.3251 11.9039 50.8851 11.9999L50.7651 12.9239C50.9251 13.0999 51.1451 13.2359 51.4251 13.3319V16.6679C51.0971 16.7879 50.8771 16.9239 50.7651 17.0759L50.8851 17.9999H53.6451L53.7651 17.0759C53.6371 16.9239 53.4171 16.7879 53.1051 16.6679V13.5839C53.4651 13.3279 53.8251 13.1999 54.1851 13.1999C54.5451 13.1999 54.7931 13.2759 54.9291 13.4279C55.0731 13.5719 55.1451 13.8599 55.1451 14.2919V16.6679C54.8171 16.7879 54.5971 16.9239 54.4851 17.0759L54.6051 17.9999H57.3651L57.4851 17.0759C57.3571 16.9239 57.1371 16.7879 56.8251 16.6679V14.3639C56.8251 13.4599 56.6651 12.8239 56.3451 12.4559C56.0331 12.0879 55.4851 11.9039 54.7011 11.9039C54.3971 11.9039 54.0771 11.9599 53.7411 12.0719C53.4131 12.1759 53.1491 12.3119 52.9491 12.4799V11.8799C52.7171 11.8639 52.4251 11.8559 52.0731 11.8559ZM58.6099 17.3279C59.0979 17.8399 59.8219 18.0959 60.7819 18.0959C61.2539 18.0959 61.6739 18.0279 62.0419 17.8919C62.4179 17.7479 62.6499 17.6359 62.7379 17.5559C62.8339 17.4679 62.9059 17.3959 62.9539 17.3399L62.5939 16.3799L62.4259 16.4759C62.3139 16.5399 62.1339 16.6039 61.8859 16.6679C61.6379 16.7319 61.3779 16.7639 61.1059 16.7639C60.6099 16.7639 60.2459 16.6599 60.0139 16.4519C59.7899 16.2439 59.6619 15.8879 59.6299 15.3839H62.2339C62.8019 15.3839 63.0859 15.0959 63.0859 14.5199C63.0859 13.5359 62.8859 12.8559 62.4859 12.4799C62.0939 12.0959 61.5259 11.9039 60.7819 11.9039C60.0379 11.9039 59.3859 12.1279 58.8259 12.5759C58.5379 12.8079 58.3099 13.1399 58.1419 13.5719C57.9739 13.9959 57.8899 14.5039 57.8899 15.0959C57.8899 16.0719 58.1299 16.8159 58.6099 17.3279ZM61.5619 13.9079C61.5619 14.0679 61.5539 14.2039 61.5379 14.3159L59.6419 14.3879C59.6979 13.9319 59.8099 13.6079 59.9779 13.4159C60.1459 13.2239 60.3859 13.1279 60.6979 13.1279C61.0179 13.1279 61.2419 13.2199 61.3699 13.4039C61.4979 13.5799 61.5619 13.7479 61.5619 13.9079ZM65.4186 15.0239C65.4186 13.7599 65.7866 13.1279 66.5226 13.1279C66.6826 13.1279 66.8106 13.1319 66.9066 13.1399C66.9306 13.4199 66.9986 13.6599 67.1106 13.8599H68.1666C68.3746 13.4519 68.4786 13.0199 68.4786 12.5639C68.4786 12.4919 68.4746 12.4159 68.4666 12.3359C67.9546 12.0479 67.3146 11.9039 66.5466 11.9039C65.7786 11.9039 65.1266 12.1279 64.5906 12.5759C63.9906 13.0879 63.6906 13.9279 63.6906 15.0959C63.6906 17.0959 64.5546 18.0959 66.2826 18.0959C66.6906 18.0959 67.1106 18.0399 67.5426 17.9279C67.9746 17.8079 68.3186 17.6639 68.5746 17.4959L68.2146 16.5719C67.7506 16.6839 67.2146 16.7399 66.6066 16.7399C66.2226 16.7399 65.9266 16.6159 65.7186 16.3679C65.5186 16.1119 65.4186 15.6639 65.4186 15.0239ZM71.289 11.9999V10.4879H70.413C70.053 10.7199 69.825 11.1639 69.729 11.8199C69.329 11.9719 69.065 12.1239 68.937 12.2759L69.069 13.0079H69.609V16.3799C69.609 16.9079 69.721 17.3119 69.945 17.5919C70.177 17.8639 70.613 17.9999 71.253 17.9999C71.901 17.9999 72.533 17.8439 73.149 17.5319L72.789 16.5959C72.477 16.7159 72.185 16.7759 71.913 16.7759C71.641 16.7759 71.469 16.7199 71.397 16.6079C71.325 16.4879 71.289 16.2999 71.289 16.0439V13.0079H73.005V11.9999H71.289Z" fill="#43C12B"/>
</svg>
